<?xml version="1.0" encoding="UTF-8"?>
<svg id="Outlines" xmlns="http://www.w3.org/2000/svg" viewBox="0 0 24 24">
  <defs>
    <style>
      .cls-1 {
        fill: #1b1b1b;
      }
    </style>
  </defs>
  <g id="graph-view">
    <path class="cls-1" d="M14,7.75h-4c-.41,0-.75-.34-.75-.75V3c0-.41.34-.75.75-.75h4c.41,0,.75.34.75.75v4c0,.41-.34.75-.75.75ZM10.75,6.25h2.5v-2.5h-2.5v2.5Z"/>
    <path class="cls-1" d="M7,21.75H3c-.41,0-.75-.34-.75-.75v-4c0-.41.34-.75.75-.75h4c.41,0,.75.34.75.75v4c0,.41-.34.75-.75.75ZM3.75,20.25h2.5v-2.5h-2.5v2.5Z"/>
    <path class="cls-1" d="M21,21.75h-4c-.41,0-.75-.34-.75-.75v-4c0-.41.34-.75.75-.75h4c.41,0,.75.34.75.75v4c0,.41-.34.75-.75.75ZM17.75,20.25h2.5v-2.5h-2.5v2.5Z"/>
    <path class="cls-1" d="M17,17.75c-.17,0-.33-.05-.47-.16l-4.53-3.62-4.53,3.62c-.32.26-.79.21-1.05-.12-.26-.32-.21-.8.12-1.05l5-4c.27-.22.66-.22.94,0l5,4c.32.26.38.73.12,1.05-.15.18-.37.28-.59.28Z"/>
    <path class="cls-1" d="M12,13.75c-.41,0-.75-.34-.75-.75v-6c0-.41.34-.75.75-.75s.75.34.75.75v6c0,.41-.34.75-.75.75Z"/>
  </g>
</svg>